<svg preserveAspectRatio="none" width="100%" height="100%" overflow="visible" style="display: block;" viewBox="0 0 24.0487 24.049" fill="none" xmlns="http://www.w3.org/2000/svg">
<path id="Vector" d="M11.7447 15.6599L8.38907 12.3042M11.7447 15.6599C13.3071 15.0656 14.806 14.3162 16.2189 13.4228M11.7447 15.6599V21.2526C11.7447 21.2526 15.1339 20.6374 16.2189 19.0155C17.4269 17.2034 16.2189 13.4228 16.2189 13.4228M8.38907 12.3042C8.9843 10.76 9.73379 9.27977 10.6262 7.886C11.9295 5.80214 13.7442 4.08636 15.8978 2.90188C18.0515 1.71739 20.4723 1.10357 22.9301 1.11882C22.9301 4.16125 22.0577 9.50788 16.2189 13.4228M8.38907 12.3042L2.79636 12.3043C2.79636 12.3043 3.41156 8.91507 5.03345 7.83009C6.84549 6.62206 10.6262 7.83009 10.6262 7.83009M3.35564 17.3378C1.67782 18.7471 1.11855 22.9305 1.11855 22.9305C1.11855 22.9305 5.3019 22.3712 6.71126 20.6934C7.50542 19.7538 7.49424 18.3109 6.61059 17.4384C6.17582 17.0235 5.60311 16.7837 5.00238 16.7651C4.40165 16.7465 3.81522 16.9504 3.35564 17.3378Z" stroke="var(--stroke-0, white)" stroke-width="2.23708" stroke-linecap="round" stroke-linejoin="round"/>
</svg>
