<svg preserveAspectRatio="none" width="100%" height="100%" overflow="visible" style="display: block;" viewBox="0 0 41.3877 37.5381" fill="none" xmlns="http://www.w3.org/2000/svg">
<path id="Union" d="M28.3936 0C29.1908 0 29.8377 0.646176 29.8379 1.44336V36.0938C29.8379 36.8911 29.1909 37.5381 28.3936 37.5381H1.44336C0.646176 37.5379 0 36.891 0 36.0938V1.44336C0.000224616 0.646315 0.646315 0.000224873 1.44336 0H28.3936ZM2.88672 34.6504H26.9502V2.88672H2.88672V34.6504ZM34.1689 5.77539C34.9663 5.77539 35.6122 6.42143 35.6123 7.21875V30.3193C35.6122 31.1166 34.9663 31.7627 34.1689 31.7627C33.3718 31.7625 32.7257 31.1165 32.7256 30.3193V7.21875C32.7257 6.42157 33.3718 5.77561 34.1689 5.77539ZM39.9443 9.62598C40.7417 9.62598 41.3877 10.272 41.3877 11.0693V26.4697C41.3874 27.2669 40.7415 27.9131 39.9443 27.9131C39.1472 27.913 38.5013 27.2668 38.501 26.4697V11.0693C38.501 10.272 39.147 9.62604 39.9443 9.62598ZM12.9932 23.1006C13.7905 23.1006 14.4374 23.7467 14.4375 24.5439C14.4375 25.3413 13.7905 25.9873 12.9932 25.9873H9.14355C8.34634 25.9871 7.7002 25.3412 7.7002 24.5439C7.70032 23.7468 8.34642 23.1008 9.14355 23.1006H12.9932ZM16.8438 15.4004C17.641 15.4004 18.287 16.0465 18.2871 16.8438C18.2871 17.6411 17.6411 18.2871 16.8438 18.2871H9.14355C8.34634 18.2869 7.7002 17.641 7.7002 16.8438C7.70035 16.0466 8.34644 15.4006 9.14355 15.4004H16.8438ZM20.6934 7.7002C21.4906 7.7002 22.1375 8.34634 22.1377 9.14355C22.1377 9.94093 21.4907 10.5869 20.6934 10.5869H9.14355C8.34634 10.5867 7.7002 9.94081 7.7002 9.14355C7.70039 8.34646 8.34646 7.70039 9.14355 7.7002H20.6934Z" fill="var(--fill-0, black)"/>
</svg>
